<?xml version="1.0" standalone="no"?>
<!DOCTYPE svg PUBLIC "-//W3C//DTD SVG 20010904//EN"
 "http://www.w3.org/TR/2001/REC-SVG-20010904/DTD/svg10.dtd">
<svg version="1.0" xmlns="http://www.w3.org/2000/svg"
 width="386.000000pt" height="393.000000pt" viewBox="0 0 386.000000 393.000000"
 preserveAspectRatio="xMidYMid meet">

<g transform="translate(0.000000,393.000000) scale(0.100000,-0.100000)"
fill="#000000" stroke="none">
<path d="M1567 3214 c-443 -69 -818 -387 -962 -816 -214 -640 128 -1329 767
-1543 376 -126 789 -62 1109 171 90 66 226 207 287 298 55 82 63 106 35 106
-11 -1 -34 -27 -58 -67 -22 -37 -87 -115 -145 -174 -166 -170 -340 -269 -569
-327 -93 -23 -126 -26 -271 -26 -145 0 -178 3 -271 26 -221 56 -400 157 -560
317 -160 160 -261 339 -317 560 -23 93 -26 126 -26 271 0 145 3 178 26 271 56
221 157 400 317 560 160 160 339 261 560 317 93 23 126 26 271 26 145 0 178
-3 271 -26 58 -15 146 -44 195 -65 270 -117 510 -359 621 -626 32 -79 38 -86
51 -73 14 14 12 23 -13 86 -205 510 -763 821 -1318 734z"/>
<path d="M1110 2366 l0 -46 -45 0 c-38 0 -45 -3 -45 -20 0 -17 7 -20 45 -20
l45 0 0 -88 c0 -106 11 -122 90 -130 46 -4 50 -3 50 17 0 18 -6 21 -38 21 -54
0 -62 13 -62 102 l0 78 55 0 c48 0 55 2 55 20 0 18 -7 20 -54 20 l-55 0 -3 42
c-2 31 -8 44 -20 46 -15 3 -18 -4 -18 -42z"/>
<path d="M1378 2300 c-60 -46 -65 -158 -10 -213 25 -25 39 -30 77 -30 39 0 52
5 78 32 30 29 32 36 32 102 0 67 -2 72 -33 100 -40 36 -105 40 -144 9z m123
-37 c9 -9 14 -40 14 -75 0 -51 -4 -63 -24 -79 -28 -23 -59 -24 -89 -3 -19 13
-22 24 -22 79 0 44 5 68 16 79 21 21 88 21 105 -1z"/>
<path d="M1640 2190 c0 -123 1 -130 20 -130 19 0 20 7 20 98 0 108 6 122 55
122 49 0 55 -14 55 -123 0 -96 0 -98 23 -95 21 3 22 8 25 103 2 64 7 102 15
107 19 12 64 9 75 -5 6 -7 13 -56 14 -108 3 -89 4 -94 26 -97 21 -3 22 -1 22
93 0 100 -13 146 -45 159 -34 13 -82 6 -100 -14 l-18 -20 -22 20 c-26 25 -81
26 -107 3 -17 -15 -18 -15 -18 0 0 10 -8 17 -20 17 -19 0 -20 -7 -20 -130z"/>
<path d="M2119 2305 c-43 -23 -67 -104 -49 -162 16 -50 36 -71 76 -82 108 -30
185 80 136 192 -11 25 -29 50 -40 56 -28 15 -92 13 -123 -4z m113 -42 c24 -21
26 -124 2 -147 -27 -27 -63 -31 -92 -9 -22 17 -28 29 -30 72 -4 71 15 101 65
101 20 0 45 -7 55 -17z"/>
<path d="M2367 2313 c-19 -19 -5 -33 33 -33 l40 0 0 -89 0 -90 -37 -3 c-26 -2
-38 -8 -38 -18 0 -12 20 -16 108 -18 102 -3 107 -2 107 18 0 17 -6 20 -50 20
l-50 0 0 63 c0 84 16 107 76 107 40 0 44 2 44 25 0 20 -5 25 -25 25 -31 0 -81
-24 -88 -42 -3 -7 -6 -1 -6 15 -1 26 -3 27 -54 27 -30 0 -57 -3 -60 -7z"/>
<path d="M2660 2300 c0 -16 7 -20 35 -20 l35 0 0 -90 0 -90 -35 0 c-28 0 -35
-4 -35 -20 0 -19 7 -20 105 -20 98 0 105 1 105 20 0 17 -7 20 -50 20 l-50 0 0
49 c0 95 16 116 95 123 23 2 31 9 33 27 4 23 2 24 -40 18 -29 -4 -50 -14 -65
-32 l-23 -26 0 30 c0 31 0 31 -55 31 -48 0 -55 -2 -55 -20z"/>
<path d="M2984 2286 c-31 -31 -34 -39 -34 -92 0 -78 24 -119 79 -134 100 -27
178 74 141 184 -16 50 -53 76 -107 76 -38 0 -50 -5 -79 -34z m130 -22 c25 -24
22 -128 -4 -154 -27 -27 -66 -25 -95 5 -20 19 -25 34 -25 72 0 66 20 93 70 93
22 0 45 -7 54 -16z"/>
<path d="M3250 2308 c0 -7 16 -65 34 -128 30 -106 35 -115 59 -118 24 -3 27 2
53 87 15 50 30 91 34 91 3 0 19 -41 34 -91 25 -86 28 -90 53 -87 24 3 28 12
59 118 39 134 40 143 17 138 -13 -2 -25 -30 -45 -102 -15 -54 -29 -101 -31
-103 -2 -2 -18 44 -36 102 -49 158 -57 152 -128 -90 -5 -18 -6 -18 -15 5 -5
13 -18 61 -30 107 -16 67 -24 83 -39 83 -11 0 -19 -6 -19 -12z"/>
<path d="M1483 1995 c-27 -11 -34 -21 -39 -54 -7 -41 -7 -41 -50 -41 -37 0
-44 -3 -44 -20 0 -17 7 -20 45 -20 l45 0 0 -90 0 -90 -40 0 c-34 0 -40 -3 -40
-20 0 -20 5 -21 108 -18 87 2 107 6 107 18 0 10 -13 16 -42 18 l-43 3 0 90 0
89 51 0 c43 0 50 3 47 18 -2 13 -15 18 -51 20 -44 3 -47 5 -47 31 0 32 14 41
67 41 27 0 34 4 31 18 -4 22 -62 27 -105 7z"/>
<path d="M2283 1981 c-53 -25 -88 -84 -103 -173 -13 -83 1 -184 33 -243 55
-101 224 -116 300 -26 76 90 76 312 0 402 -51 60 -148 77 -230 40z m138 -90
c23 -18 24 -25 24 -149 0 -114 -2 -133 -19 -151 -19 -21 -70 -28 -92 -13 -51
33 -59 247 -13 306 25 31 67 34 100 7z"/>
<path d="M1730 1985 c0 -3 36 -77 80 -165 l80 -160 0 -85 0 -85 55 0 55 0 0
89 0 89 75 153 c41 85 75 157 75 161 0 5 -26 8 -57 8 l-58 -1 -27 -62 c-15
-34 -36 -82 -46 -106 l-18 -44 -24 59 c-13 32 -34 80 -47 107 l-23 47 -60 0
c-33 0 -60 -2 -60 -5z"/>
<path d="M2630 1795 c0 -233 8 -266 74 -296 54 -24 149 -25 195 -1 72 36 76
49 79 283 l3 209 -55 0 -56 0 0 -188 c0 -213 -5 -232 -64 -232 -62 0 -66 14
-66 228 l0 192 -55 0 -55 0 0 -195z"/>
<path d="M1109 1885 c-43 -23 -67 -104 -49 -162 16 -50 36 -71 76 -82 108 -30
185 80 136 192 -11 25 -29 50 -40 56 -28 15 -92 13 -123 -4z m113 -42 c24 -21
26 -124 2 -147 -27 -27 -63 -31 -92 -9 -22 17 -28 29 -30 72 -4 71 15 101 65
101 20 0 45 -7 55 -17z"/>
</g>
</svg>
